<?xml version="1.0" encoding="UTF-8" standalone="no"?>
<svg
   xmlns:dc="http://purl.org/dc/elements/1.1/"
   xmlns:cc="http://creativecommons.org/ns#"
   xmlns:rdf="http://www.w3.org/1999/02/22-rdf-syntax-ns#"
   xmlns:svg="http://www.w3.org/2000/svg"
   xmlns="http://www.w3.org/2000/svg"
   xmlns:sodipodi="http://sodipodi.sourceforge.net/DTD/sodipodi-0.dtd"
   xmlns:inkscape="http://www.inkscape.org/namespaces/inkscape"
   version="1.0"
   width="2000px"
   height="2000px"
   viewBox="0 0 20000 20000"
   preserveAspectRatio="xMidYMid meet"
   id="svg2"
   inkscape:version="0.91 r13725"
   sodipodi:docname="pizza2.svg">
  <metadata
     id="metadata88">
    <rdf:RDF>
      <cc:Work
         rdf:about="">
        <dc:format>image/svg+xml</dc:format>
        <dc:type
           rdf:resource="http://purl.org/dc/dcmitype/StillImage" />
        <dc:title></dc:title>
      </cc:Work>
    </rdf:RDF>
  </metadata>
  <defs
     id="defs86" />
  <sodipodi:namedview
     pagecolor="#ffffff"
     bordercolor="#666666"
     borderopacity="1"
     objecttolerance="10"
     gridtolerance="10"
     guidetolerance="10"
     inkscape:pageopacity="0"
     inkscape:pageshadow="2"
     inkscape:window-width="1600"
     inkscape:window-height="837"
     id="namedview84"
     showgrid="false"
     inkscape:zoom="0.472"
     inkscape:cx="714.28488"
     inkscape:cy="1173.1633"
     inkscape:window-x="-8"
     inkscape:window-y="-8"
     inkscape:window-maximized="1"
     inkscape:current-layer="layer1" />
  <g
     inkscape:groupmode="layer"
     id="layer1"
     inkscape:label="Layer 1"
     style="display:inline">
    <path
       style="fill:#b4b4b4;stroke:none"
       d="M 986.95703 70.527344 C 960.29538 70.650663 940.89821 71.736938 914.69531 74.183594 C 745.16574 89.863238 581.74072 152.58125 445.35938 254.02539 C 302.87455 360.09976 195.32643 500.05846 130.1875 664.43164 C 96.513098 749.45951 76.730156 834.383 67.890625 932.77539 C 65.15458 963.08236 65.15458 1052.8456 67.890625 1083.2578 C 71.468531 1123.4566 76.203801 1156.6037 83.464844 1193.2246 C 109.98344 1327.3961 168.28162 1457.7795 251.09961 1568.3789 C 366.53967 1722.5445 526.28352 1838.0902 707.38867 1898.2832 C 781.26189 1922.8024 861.02828 1938.5873 936.26953 1943.5332 C 945.52999 1944.1646 955.21099 1944.7954 957.8418 1945.0059 C 967.62843 1945.8477 1060.9686 1944.6911 1073.0703 1943.6387 C 1099.168 1941.2184 1117.7941 1939.2187 1135.6836 1936.5879 C 1302.3719 1912.8053 1458.1166 1845.2459 1589.2363 1739.9082 C 1784.1269 1583.3222 1908.0905 1358.4401 1935.3457 1111.6699 C 1939.6603 1072.7339 1940.1875 1061.2647 1940.1875 1006.9648 C 1940.1875 951.40199 1939.3442 935.82608 1934.293 894.89062 C 1924.2959 813.23019 1903.8825 733.36026 1874.207 659.80273 C 1842.3215 580.77311 1801.9123 509.52974 1750.6641 441.86523 C 1596.9194 238.97695 1367.3015 106.91096 1116.2168 76.814453 C 1079.8063 72.394687 1060.7581 71.237101 1016.5605 70.710938 C 1005.5374 70.553089 995.84425 70.486237 986.95703 70.527344 z M 1003.0117 86.296875 A 921.61017 921.61017 0 0 1 1924.623 1007.9062 A 921.61017 921.61017 0 0 1 1003.0117 1929.5156 A 921.61017 921.61017 0 0 1 81.402344 1007.9062 A 921.61017 921.61017 0 0 1 1003.0117 86.296875 z M 1003.0117 109.60156 A 898.30509 898.30509 0 0 0 104.70703 1007.9062 A 898.30509 898.30509 0 0 0 1003.0117 1906.2109 A 898.30509 898.30509 0 0 0 1901.3184 1007.9062 A 898.30509 898.30509 0 0 0 1003.0117 109.60156 z M 1058.8652 335.47461 L 1070.7559 335.68555 C 1077.1751 335.79079 1089.1725 336.52704 1097.2754 337.26367 C 1217.1353 349.04971 1326.1557 394.30018 1418.1289 470.59375 C 1425.1795 476.48677 1434.124 484.27413 1438.0176 488.0625 L 1445.1738 494.90234 L 1398.1348 541.94141 L 1351.2012 588.875 L 1341.9395 579.7207 C 1334.3628 572.03873 1331.1008 569.61798 1322.8926 565.61914 C 1309.5281 559.09473 1301.8465 557.19922 1288.2715 557.19922 C 1274.6965 557.30445 1266.8045 559.19996 1253.6504 565.61914 C 1245.4423 569.61798 1242.1803 572.03873 1234.6035 579.7207 C 1226.9216 587.29744 1224.5008 590.55945 1220.502 598.76758 C 1213.9776 612.02688 1212.084 619.81368 1212.084 633.38867 C 1212.084 646.22704 1213.9771 654.32896 1219.4492 666.00977 C 1223.5532 674.8493 1227.8689 680.5325 1237.3398 689.79297 L 1243.8633 696.21289 L 1151.3633 788.71094 L 1058.8652 881.21094 L 1058.8652 608.34375 L 1058.8652 335.47461 z M 985.20117 424.81836 L 985.20117 697.47461 C 985.20117 847.43094 985.09742 970.13281 984.99219 970.13281 C 984.78173 970.13281 934.47947 920.14642 873.12891 859.2168 L 761.58203 748.30273 L 767.89648 747.56641 C 777.05171 746.51409 791.15302 742.09453 798.41406 738.0957 C 817.04021 727.67768 831.14095 709.36675 836.50781 689.16211 C 838.82292 680.11211 838.82292 662.53803 836.50781 653.38281 C 835.56072 649.59444 832.50972 642.12248 829.87891 636.65039 C 825.88008 628.44225 823.45932 625.18026 815.77734 617.60352 C 808.2006 609.92155 804.93861 607.50078 796.73047 603.50195 C 783.36594 596.97753 775.68438 595.08398 762.10938 595.08398 C 748.53438 595.18921 740.64234 597.08276 727.48828 603.50195 C 719.28014 607.50078 716.01619 609.92155 708.43945 617.60352 C 700.75748 625.18026 698.33867 628.44225 694.33984 636.65039 C 689.28868 646.85794 686.97201 654.6452 685.81445 665.37891 L 685.07812 671.58789 L 642.03906 628.54688 L 598.99805 585.50781 L 604.57617 579.92969 C 617.30931 566.88086 648.35303 542.25765 674.24023 524.78906 C 746.42974 475.85594 830.93146 443.44455 917.85352 430.92188 C 927.95584 429.55384 939.63593 428.07937 943.63477 427.76367 C 947.73883 427.34274 952.68417 426.92312 954.68359 426.60742 C 956.68301 426.39696 964.36638 425.87015 971.83789 425.44922 L 985.20117 424.81836 z M 1429.3887 608.6582 L 1435.1758 614.97266 C 1471.7967 655.06625 1502.3153 699.68525 1527.0449 749.14453 C 1544.303 783.6608 1555.1403 811.33595 1565.4531 847.00977 C 1577.9757 889.94463 1585.9749 937.51082 1587.8691 978.86719 L 1588.5 994.33594 L 1316.1582 994.33594 L 1043.8164 994.33594 L 1129.1602 908.88672 C 1214.0828 823.75362 1214.5039 823.33362 1217.1348 824.91211 C 1218.608 825.75397 1222.29 827.96323 1225.3418 829.85742 C 1245.5464 841.95916 1273.8548 842.90582 1296.1641 832.27734 C 1315.5269 823.01687 1331.8387 803.0226 1337.416 781.76562 C 1339.7311 772.61039 1339.7308 755.14155 1337.3105 745.98633 C 1335.3111 738.09389 1329.3118 724.93983 1325.5234 719.88867 L 1322.7871 716.41602 L 1331.3125 707.26172 C 1335.9428 702.21056 1359.9342 678.00721 1384.5586 653.38281 L 1429.3887 608.6582 z M 574.90039 608.76367 L 767.68555 801.55078 L 960.47266 994.33594 L 781.57617 994.33594 L 602.57617 994.33594 L 602.57617 983.07617 C 602.47093 969.18548 600.57738 961.29273 594.1582 948.13867 C 590.15936 939.93053 587.73861 936.66854 580.05664 929.0918 C 572.4799 921.40982 569.21791 918.98906 561.00977 914.99023 C 547.64525 908.46581 539.96366 906.57227 526.38867 906.57227 C 512.81367 906.6775 504.92165 908.57105 491.76758 914.99023 C 483.55945 918.98906 480.29549 921.40982 472.71875 929.0918 C 465.03677 936.66854 462.61798 939.93053 458.61914 948.13867 C 452.19996 961.29273 450.30445 969.18548 450.19922 983.07617 L 450.19922 994.33594 L 432.83594 994.33594 L 415.57812 994.33594 L 416.31445 980.9707 C 421.99701 874.7911 455.14479 774.50563 513.54883 686.53125 C 530.38603 661.17021 550.06625 635.80911 568.27148 616.02539 L 574.90039 608.76367 z M 415.89453 1029.0625 L 441.15039 1029.0625 L 466.30078 1029.0625 L 469.24609 1032.7461 C 473.56063 1038.2182 485.45256 1047.3734 493.0293 1051.0566 C 513.23394 1060.9484 538.91154 1061.054 559.53711 1051.1621 C 567.11385 1047.479 579.10954 1038.3234 583.5293 1032.7461 L 586.47656 1029.0625 L 774 1029.0625 L 961.52539 1029.0625 L 770.52734 1219.8496 C 665.40007 1324.6612 578.47787 1411.3732 577.32031 1412.3203 C 575.21566 1414.1092 575.11033 1414.1093 572.05859 1410.6367 C 570.37487 1408.6373 564.69326 1402.1115 559.43164 1396.1133 C 485.55841 1312.4534 436.2045 1203.96 421.15625 1092.2031 C 418.7359 1074.2083 415.89453 1043.1644 415.89453 1034.6406 L 415.89453 1029.0625 z M 1043.6055 1029.0625 L 1316.0527 1029.0625 L 1588.5 1029.0625 L 1587.8691 1044.2168 C 1586.5011 1072.9452 1582.0806 1105.5673 1575.3457 1136.4004 C 1553.8783 1235.319 1508.8386 1323.924 1441.2793 1400.5332 C 1435.1758 1407.4786 1429.8097 1413.3715 1429.3887 1413.582 C 1428.9678 1413.8977 1342.0453 1327.5024 1236.0762 1221.5332 L 1043.6055 1029.0625 z M 985.20117 1052.7402 L 985.20117 1325.082 L 985.20117 1597.3184 L 978.15039 1597.2129 C 965.10156 1596.8972 936.47967 1594.2671 917.85352 1591.4258 C 812.3053 1575.9566 717.4901 1534.8103 634.77734 1468.6191 C 620.57096 1457.254 601.10358 1440.2071 600.26172 1438.5234 C 600.15649 1438.1025 686.65781 1351.1803 792.62695 1245.3164 L 985.20117 1052.7402 z M 1019.9277 1053.793 L 1211.9785 1245.8418 C 1317.6319 1351.4952 1404.0273 1438.2077 1404.0273 1438.5234 C 1404.0273 1438.9443 1398.0283 1444.5204 1390.6621 1451.0449 C 1310.8958 1521.3402 1212.7153 1569.0108 1109.377 1587.7422 C 1086.4363 1591.8463 1078.8581 1592.8995 1055.707 1595.1094 C 1049.6035 1595.7408 1039.0805 1596.4756 1032.3457 1596.8965 L 1019.9277 1597.5293 L 1019.9277 1325.7129 L 1019.9277 1053.793 z "
       transform="scale(9.9999999,9.9999999)"
       id="path68" />
    <path
       style="fill:#b4b4b4;stroke:none"
       inkscape:connector-curvature="0"
       id="path70"
       d="m 8135,14620 c -92,-24 -153,-51 -223,-99 -155,-105 -263,-256 -308,-431 -23,-86 -23,-253 -1,-340 9,-36 38,-107 63,-159 38,-78 61,-109 134,-181 72,-73 103,-96 181,-134 126,-61 200,-79 329,-79 129,0 203,18 329,79 78,38 109,61 181,134 73,72 96,103 134,181 61,126 79,200 79,329 0,126 -18,203 -72,315 -94,190 -270,332 -477,385 -101,26 -252,26 -349,0 z" />
    <path
       style="fill:#b4b4b4;stroke:none"
       inkscape:connector-curvature="0"
       id="path72"
       d="m 11603,14445 c -295,-80 -437,-392 -301,-660 27,-52 122,-151 176,-182 140,-82 324,-82 464,0 54,31 149,130 176,182 55,108 67,236 32,347 -70,229 -323,373 -547,313 z" />
    <path
       style="fill:#b4b4b4;stroke:none"
       inkscape:connector-curvature="0"
       id="path74"
       d="m 7285,11606 c -292,-73 -439,-393 -303,-661 27,-52 122,-151 176,-182 140,-82 324,-82 464,0 54,31 149,130 176,182 55,108 67,236 32,347 -70,227 -318,370 -545,314 z" />
    <path
       style="fill:#b4b4b4;stroke:none"
       inkscape:connector-curvature="0"
       id="path76"
       d="m 12852,12260 c -256,-67 -462,-274 -529,-530 -22,-86 -22,-253 0,-340 9,-36 38,-107 63,-159 38,-78 61,-109 134,-181 72,-73 103,-96 181,-134 126,-61 200,-79 329,-79 129,0 203,18 329,79 78,38 109,61 181,134 73,72 96,103 134,181 25,52 54,123 63,159 22,87 22,254 0,340 -68,258 -274,464 -533,530 -102,26 -252,26 -352,0 z" />
    <path
       style="fill:#b4b4b4;stroke:none"
       inkscape:connector-curvature="0"
       id="path78"
       d="m 6805,8846 c -109,-26 -220,-106 -285,-204 -100,-151 -91,-367 23,-517 138,-181 379,-236 581,-133 53,27 152,122 183,176 63,107 80,246 43,364 -70,228 -316,370 -545,314 z" />
    <path
       style="fill:#b4b4b4;stroke:none"
       inkscape:connector-curvature="0"
       id="path80"
       d="m 13885,9446 c -109,-26 -220,-106 -285,-204 -100,-151 -91,-367 23,-517 138,-181 379,-236 581,-133 53,27 152,122 183,176 63,107 80,246 43,364 -70,228 -316,370 -545,314 z" />
    <path
       style="fill:#b4b4b4;stroke:none"
       inkscape:connector-curvature="0"
       id="path82"
       d="m 11285,5246 c -109,-26 -220,-106 -285,-204 -100,-151 -91,-367 23,-517 51,-67 128,-126 205,-156 47,-19 76,-23 162,-23 86,0 115,4 162,23 223,88 347,336 280,558 -71,233 -316,375 -547,319 z" />
  </g>
</svg>
